<svg class="main-svg" xmlns="http://www.w3.org/2000/svg" xmlns:xlink="http://www.w3.org/1999/xlink" width="1200" height="600" viewBox="0 0 1200 600"><rect x="0" y="0" width="1200" height="600" style="fill: rgb(17, 17, 17); fill-opacity: 1;"/><defs id="defs-6cade0"><g class="clips"><clipPath id="clip6cade0polar-for-traces"><path d="M89.25000000000001,0A89.25000000000001,89.25000000000001 0,1,0 -89.25000000000001,-1.092997268239013e-14A89.25000000000001,89.25000000000001 0,1,0 89.25000000000001,2.185994536478026e-14Z" transform="translate(89.25000000000001,89.25)"/></clipPath><clipPath id="clip6cade0polar2-for-traces"><path d="M210,0A210,210 0,1,0 -210,-2.5717582782094416e-14A210,210 0,1,0 210,5.143516556418883e-14Z" transform="translate(210.00000000000006,210)"/></clipPath></g><g class="gradients"/></defs><g class="bglayer"/><g class="layer-below"><g class="imagelayer"/><g class="shapelayer"/></g><g class="cartesianlayer"/><g class="polarlayer"><g class="polar"><g class="polarsublayer draglayer"/><g class="polarsublayer plotbg"><path d="M89.25000000000001,0A89.25000000000001,89.25000000000001 0,1,0 -89.25000000000001,-1.092997268239013e-14A89.25000000000001,89.25000000000001 0,1,0 89.25000000000001,2.185994536478026e-14Z" transform="translate(209.85555555555555,189.25)" style="fill: rgb(17, 17, 17); fill-opacity: 1;"/></g><g class="polarsublayer backplot"><g class="maplayer"/></g><g class="polarsublayer angular-grid" style="fill: none;"><path class="angularaxisgrid" d="M209.85555555555555,189.25L209.85555555555555,278.5" style="stroke: rgb(255, 255, 255); stroke-opacity: 1; stroke-width: 1px;"/><path class="angularaxisgrid" d="M209.85555555555555,189.25L165.23055555555555,266.5427672877612" style="stroke: rgb(255, 255, 255); stroke-opacity: 1; stroke-width: 1px;"/><path class="angularaxisgrid" d="M209.85555555555555,189.25L132.56278826779442,233.87500000000003" style="stroke: rgb(255, 255, 255); stroke-opacity: 1; stroke-width: 1px;"/><path class="angularaxisgrid" d="M209.85555555555555,189.25L120.60555555555554,189.25" style="stroke: rgb(255, 255, 255); stroke-opacity: 1; stroke-width: 1px;"/><path class="angularaxisgrid" d="M209.85555555555555,189.25L132.56278826779436,144.625" style="stroke: rgb(255, 255, 255); stroke-opacity: 1; stroke-width: 1px;"/><path class="angularaxisgrid" d="M209.85555555555555,189.25L165.23055555555558,111.95723271223882" style="stroke: rgb(255, 255, 255); stroke-opacity: 1; stroke-width: 1px;"/><path class="angularaxisgrid" d="M209.85555555555555,189.25L209.85555555555553,99.99999999999999" style="stroke: rgb(255, 255, 255); stroke-opacity: 1; stroke-width: 1px;"/><path class="angularaxisgrid" d="M209.85555555555555,189.25L254.4805555555555,111.9572327122388" style="stroke: rgb(255, 255, 255); stroke-opacity: 1; stroke-width: 1px;"/><path class="angularaxisgrid" d="M209.85555555555555,189.25L287.1483228433167,144.62499999999994" style="stroke: rgb(255, 255, 255); stroke-opacity: 1; stroke-width: 1px;"/><path class="angularaxisgrid" d="M209.85555555555555,189.25L299.10555555555555,189.24999999999997" style="stroke: rgb(255, 255, 255); stroke-opacity: 1; stroke-width: 1px;"/><path class="angularaxisgrid" d="M209.85555555555555,189.25L287.1483228433167,233.875" style="stroke: rgb(255, 255, 255); stroke-opacity: 1; stroke-width: 1px;"/><path class="angularaxisgrid" d="M209.85555555555555,189.25L254.4805555555556,266.54276728776114" style="stroke: rgb(255, 255, 255); stroke-opacity: 1; stroke-width: 1px;"/></g><g class="polarsublayer radial-grid" display="none" style="fill: none;"><path class="xgrid" d="M10.88,0A10.88,10.88 0,1,0 -10.88,-1.3324157174723203e-15A10.88,10.88 0,1,0 10.88,2.6648314349446406e-15Z" style="stroke: rgb(221, 221, 221); stroke-opacity: 1; stroke-width: 1px;"/><path class="xgrid" d="M21.76,0A21.76,21.76 0,1,0 -21.76,-2.6648314349446406e-15A21.76,21.76 0,1,0 21.76,5.329662869889281e-15Z" style="stroke: rgb(221, 221, 221); stroke-opacity: 1; stroke-width: 1px;"/><path class="xgrid" d="M32.64,0A32.64,32.64 0,1,0 -32.64,-3.997247152416961e-15A32.64,32.64 0,1,0 32.64,7.994494304833921e-15Z" style="stroke: rgb(221, 221, 221); stroke-opacity: 1; stroke-width: 1px;"/><path class="xgrid" d="M43.52,0A43.52,43.52 0,1,0 -43.52,-5.329662869889281e-15A43.52,43.52 0,1,0 43.52,1.0659325739778562e-14Z" style="stroke: rgb(221, 221, 221); stroke-opacity: 1; stroke-width: 1px;"/><path class="xgrid" d="M54.4,0A54.4,54.4 0,1,0 -54.4,-6.662078587361601e-15A54.4,54.4 0,1,0 54.4,1.3324157174723202e-14Z" style="stroke: rgb(221, 221, 221); stroke-opacity: 1; stroke-width: 1px;"/><path class="xgrid" d="M65.28,0A65.28,65.28 0,1,0 -65.28,-7.994494304833921e-15A65.28,65.28 0,1,0 65.28,1.5988988609667843e-14Z" style="stroke: rgb(221, 221, 221); stroke-opacity: 1; stroke-width: 1px;"/><path class="xgrid" d="M76.16,0A76.16,76.16 0,1,0 -76.16,-9.326910022306242e-15A76.16,76.16 0,1,0 76.16,1.8653820044612484e-14Z" style="stroke: rgb(221, 221, 221); stroke-opacity: 1; stroke-width: 1px;"/><path class="xgrid" d="M87.04,0A87.04,87.04 0,1,0 -87.04,-1.0659325739778562e-14A87.04,87.04 0,1,0 87.04,2.1318651479557125e-14Z" style="stroke: rgb(221, 221, 221); stroke-opacity: 1; stroke-width: 1px;"/></g><g class="polarsublayer frontplot" transform="translate(120.60555555555554,100)" clip-path="url('#clip6cade0polar-for-traces')"><g class="barlayer"><g class="trace bars" style="opacity: 1;"><g class="points"><g class="point" style="vector-effect: non-scaling-stroke; stroke-miterlimit: 2;"><path d="M89.25000000000001,89.25L82.65225040402248,116.73160487523934A28.262500000000006,28.262500000000006 0,0,0 95.84774959597755,116.73160487523934L89.25000000000001,89.25A0,0 0,0,1 89.25000000000001,89.25Z" style="opacity: 1; stroke-width: 0.5px; fill: rgb(251, 230, 197); fill-opacity: 1; stroke: rgb(229, 236, 246); stroke-opacity: 1;"/></g><g class="point" style="vector-effect: non-scaling-stroke; stroke-miterlimit: 2;"><path d="M89.25000000000001,89.25L74.31140149965324,104.9919981992174A21.701894674399437,21.701894674399437 0,0,0 83.08632890332224,110.05820489784512L89.25000000000001,89.25A0,0 0,0,1 89.25000000000001,89.25Z" style="opacity: 1; stroke-width: 0.5px; fill: rgb(251, 230, 197); fill-opacity: 1; stroke: rgb(229, 236, 246); stroke-opacity: 1;"/></g><g class="point" style="vector-effect: non-scaling-stroke; stroke-miterlimit: 2;"><path d="M89.25000000000001,89.25L71.01460287401721,94.65157071470884A19.018587606031684,19.018587606031684 0,0,0 75.4544039777327,102.34153180184443L89.25000000000001,89.25A0,0 0,0,1 89.25000000000001,89.25Z" style="opacity: 1; stroke-width: 0.5px; fill: rgb(251, 230, 197); fill-opacity: 1; stroke: rgb(229, 236, 246); stroke-opacity: 1;"/></g><g class="point" style="vector-effect: non-scaling-stroke; stroke-miterlimit: 2;"><path d="M89.25000000000001,89.25L71.048145646219,84.88012139378726A18.719063570309615,18.719063570309615 0,0,0 71.04814564621901,93.61987860621277L89.25000000000001,89.25A0,0 0,0,1 89.25000000000001,89.25Z" style="opacity: 1; stroke-width: 0.5px; fill: rgb(251, 230, 197); fill-opacity: 1; stroke: rgb(229, 236, 246); stroke-opacity: 1;"/></g><g class="point" style="vector-effect: non-scaling-stroke; stroke-miterlimit: 2;"><path d="M89.25000000000001,89.25L77.72496499289345,78.3131501481073A15.888395658400425,15.888395658400425 0,0,0 74.01589268733157,84.7374518302871L89.25000000000001,89.25A0,0 0,0,1 89.25000000000001,89.25Z" style="opacity: 1; stroke-width: 0.5px; fill: rgb(251, 230, 197); fill-opacity: 1; stroke: rgb(229, 236, 246); stroke-opacity: 1;"/></g><g class="point" style="vector-effect: non-scaling-stroke; stroke-miterlimit: 2;"><path d="M89.25000000000001,89.25L85.35175211727008,76.08973570066763A13.725483342436094,13.725483342436094 0,0,0 79.80200073762572,79.29388615364078L89.25000000000001,89.25A0,0 0,0,1 89.25000000000001,89.25Z" style="opacity: 1; stroke-width: 0.5px; fill: rgb(251, 230, 197); fill-opacity: 1; stroke: rgb(229, 236, 246); stroke-opacity: 1;"/></g><g class="point" style="vector-effect: non-scaling-stroke; stroke-miterlimit: 2;"><path d="M89.25000000000001,89.25L92.32331314956109,76.44872944471736A13.165021137271728,13.165021137271728 0,0,0 86.17668685043893,76.44872944471736L89.25000000000001,89.25A0,0 0,0,1 89.25000000000001,89.25Z" style="opacity: 1; stroke-width: 0.5px; fill: rgb(251, 230, 197); fill-opacity: 1; stroke: rgb(229, 236, 246); stroke-opacity: 1;"/></g><g class="point" style="vector-effect: non-scaling-stroke; stroke-miterlimit: 2;"><path d="M89.25000000000001,89.25L102.67812994891274,75.09970354014573A19.5075770875486,19.5075770875486 0,0,0 94.79045123085847,70.5457501089958L89.25000000000001,89.25A0,0 0,0,1 89.25000000000001,89.25Z" style="opacity: 1; stroke-width: 0.5px; fill: rgb(251, 230, 197); fill-opacity: 1; stroke: rgb(229, 236, 246); stroke-opacity: 1;"/></g><g class="point" style="vector-effect: non-scaling-stroke; stroke-miterlimit: 2;"><path d="M89.25000000000001,89.25L105.68716484154493,84.38108995501814A17.14312320011279,17.14312320011279 0,0,0 101.68518220846798,77.44945270352059L89.25000000000001,89.25A0,0 0,0,1 89.25000000000001,89.25Z" style="opacity: 1; stroke-width: 0.5px; fill: rgb(251, 230, 197); fill-opacity: 1; stroke: rgb(229, 236, 246); stroke-opacity: 1;"/></g><g class="point" style="vector-effect: non-scaling-stroke; stroke-miterlimit: 2;"><path d="M89.25000000000001,89.25L110.77017689126478,94.41653736323944A22.131676885339612,22.131676885339612 0,0,0 110.7701768912648,84.08346263676057L89.25000000000001,89.25A0,0 0,0,1 89.25000000000001,89.25Z" style="opacity: 1; stroke-width: 0.5px; fill: rgb(251, 230, 197); fill-opacity: 1; stroke: rgb(229, 236, 246); stroke-opacity: 1;"/></g><g class="point" style="vector-effect: non-scaling-stroke; stroke-miterlimit: 2;"><path d="M89.25000000000001,89.25L99.40328375642741,98.88510652065133A13.997301479314872,13.997301479314872 0,0,0 102.67088889326686,93.22544840457235L89.25000000000001,89.25A0,0 0,0,1 89.25000000000001,89.25Z" style="opacity: 1; stroke-width: 0.5px; fill: rgb(251, 230, 197); fill-opacity: 1; stroke: rgb(229, 236, 246); stroke-opacity: 1;"/></g><g class="point" style="vector-effect: non-scaling-stroke; stroke-miterlimit: 2;"><path d="M89.25000000000001,89.25L94.50902391423345,107.00416719250649A18.516689370131825,18.516689370131825 0,0,0 101.99604785463015,102.68153190508929L89.25000000000001,89.25A0,0 0,0,1 89.25000000000001,89.25Z" style="opacity: 1; stroke-width: 0.5px; fill: rgb(251, 230, 197); fill-opacity: 1; stroke: rgb(229, 236, 246); stroke-opacity: 1;"/></g></g></g><g class="trace bars" style="opacity: 1;"><g class="points"><g class="point" style="vector-effect: non-scaling-stroke; stroke-miterlimit: 2;"><path d="M82.65225040402248,116.73160487523934L76.05450080804496,144.21320975047868A56.52500000000001,56.52500000000001 0,0,0 102.44549919195508,144.21320975047868L95.84774959597755,116.73160487523934A28.262500000000006,28.262500000000006 0,0,1 82.65225040402248,116.73160487523934Z" style="opacity: 1; stroke-width: 0.5px; fill: rgb(245, 186, 152); fill-opacity: 1; stroke: rgb(229, 236, 246); stroke-opacity: 1;"/></g><g class="point" style="vector-effect: non-scaling-stroke; stroke-miterlimit: 2;"><path d="M74.31140149965324,104.9919981992174L59.37280299930648,120.73399639843481A43.403789348798874,43.403789348798874 0,0,0 76.92265780664445,130.86640979569023L83.08632890332224,110.05820489784512A21.701894674399437,21.701894674399437 0,0,1 74.31140149965324,104.9919981992174Z" style="opacity: 1; stroke-width: 0.5px; fill: rgb(245, 186, 152); fill-opacity: 1; stroke: rgb(229, 236, 246); stroke-opacity: 1;"/></g><g class="point" style="vector-effect: non-scaling-stroke; stroke-miterlimit: 2;"><path d="M71.01460287401721,94.65157071470884L52.779205748034414,100.05314142941768A38.03717521206337,38.03717521206337 0,0,0 61.65880795546537,115.43306360368885L75.4544039777327,102.34153180184443A19.018587606031684,19.018587606031684 0,0,1 71.01460287401721,94.65157071470884Z" style="opacity: 1; stroke-width: 0.5px; fill: rgb(245, 186, 152); fill-opacity: 1; stroke: rgb(229, 236, 246); stroke-opacity: 1;"/></g><g class="point" style="vector-effect: non-scaling-stroke; stroke-miterlimit: 2;"><path d="M71.048145646219,84.88012139378726L52.84629129243799,80.51024278757451A37.43812714061923,37.43812714061923 0,0,0 52.846291292438,97.98975721242553L71.04814564621901,93.61987860621277A18.719063570309615,18.719063570309615 0,0,1 71.048145646219,84.88012139378726Z" style="opacity: 1; stroke-width: 0.5px; fill: rgb(245, 186, 152); fill-opacity: 1; stroke: rgb(229, 236, 246); stroke-opacity: 1;"/></g><g class="point" style="vector-effect: non-scaling-stroke; stroke-miterlimit: 2;"><path d="M77.72496499289345,78.3131501481073L66.19992998578688,67.37630029621458A31.77679131680085,31.77679131680085 0,0,0 58.781785374663116,80.2249036605742L74.01589268733157,84.7374518302871A15.888395658400425,15.888395658400425 0,0,1 77.72496499289345,78.3131501481073Z" style="opacity: 1; stroke-width: 0.5px; fill: rgb(245, 186, 152); fill-opacity: 1; stroke: rgb(229, 236, 246); stroke-opacity: 1;"/></g><g class="point" style="vector-effect: non-scaling-stroke; stroke-miterlimit: 2;"><path d="M85.35175211727008,76.08973570066763L81.45350423454015,62.92947140133525A27.45096668487219,27.45096668487219 0,0,0 70.35400147525144,69.33777230728158L79.80200073762572,79.29388615364078A13.725483342436094,13.725483342436094 0,0,1 85.35175211727008,76.08973570066763Z" style="opacity: 1; stroke-width: 0.5px; fill: rgb(245, 186, 152); fill-opacity: 1; stroke: rgb(229, 236, 246); stroke-opacity: 1;"/></g><g class="point" style="vector-effect: non-scaling-stroke; stroke-miterlimit: 2;"><path d="M92.32331314956109,76.44872944471736L95.39662629912216,63.647458889434716A26.330042274543455,26.330042274543455 0,0,0 83.10337370087785,63.647458889434716L86.17668685043893,76.44872944471736A13.165021137271728,13.165021137271728 0,0,1 92.32331314956109,76.44872944471736Z" style="opacity: 1; stroke-width: 0.5px; fill: rgb(245, 186, 152); fill-opacity: 1; stroke: rgb(229, 236, 246); stroke-opacity: 1;"/></g><g class="point" style="vector-effect: non-scaling-stroke; stroke-miterlimit: 2;"><path d="M102.67812994891274,75.09970354014573L116.10625989782545,60.94940708029145A39.0151541750972,39.0151541750972 0,0,0 100.33090246171692,51.84150021799162L94.79045123085847,70.5457501089958A19.5075770875486,19.5075770875486 0,0,1 102.67812994891274,75.09970354014573Z" style="opacity: 1; stroke-width: 0.5px; fill: rgb(245, 186, 152); fill-opacity: 1; stroke: rgb(229, 236, 246); stroke-opacity: 1;"/></g><g class="point" style="vector-effect: non-scaling-stroke; stroke-miterlimit: 2;"><path d="M105.68716484154493,84.38108995501814L122.12432968308983,79.51217991003628A34.28624640022558,34.28624640022558 0,0,0 114.12036441693593,65.6489054070412L101.68518220846798,77.44945270352059A17.14312320011279,17.14312320011279 0,0,1 105.68716484154493,84.38108995501814Z" style="opacity: 1; stroke-width: 0.5px; fill: rgb(245, 186, 152); fill-opacity: 1; stroke: rgb(229, 236, 246); stroke-opacity: 1;"/></g><g class="point" style="vector-effect: non-scaling-stroke; stroke-miterlimit: 2;"><path d="M110.77017689126478,94.41653736323944L132.29035378252956,99.58307472647888A44.263353770679224,44.263353770679224 0,0,0 132.29035378252956,78.91692527352113L110.7701768912648,84.08346263676057A22.131676885339612,22.131676885339612 0,0,1 110.77017689126478,94.41653736323944Z" style="opacity: 1; stroke-width: 0.5px; fill: rgb(245, 186, 152); fill-opacity: 1; stroke: rgb(229, 236, 246); stroke-opacity: 1;"/></g><g class="point" style="vector-effect: non-scaling-stroke; stroke-miterlimit: 2;"><path d="M99.40328375642741,98.88510652065133L109.5565675128548,108.52021304130268A27.994602958629745,27.994602958629745 0,0,0 116.09177778653371,97.2008968091447L102.67088889326686,93.22544840457235A13.997301479314872,13.997301479314872 0,0,1 99.40328375642741,98.88510652065133Z" style="opacity: 1; stroke-width: 0.5px; fill: rgb(245, 186, 152); fill-opacity: 1; stroke: rgb(229, 236, 246); stroke-opacity: 1;"/></g><g class="point" style="vector-effect: non-scaling-stroke; stroke-miterlimit: 2;"><path d="M94.50902391423345,107.00416719250649L99.76804782846689,124.75833438501297A37.03337874026365,37.03337874026365 0,0,0 114.7420957092603,116.11306381017857L101.99604785463015,102.68153190508929A18.516689370131825,18.516689370131825 0,0,1 94.50902391423345,107.00416719250649Z" style="opacity: 1; stroke-width: 0.5px; fill: rgb(245, 186, 152); fill-opacity: 1; stroke: rgb(229, 236, 246); stroke-opacity: 1;"/></g></g></g><g class="trace bars" style="opacity: 1;"><g class="points"><g class="point" style="vector-effect: non-scaling-stroke; stroke-miterlimit: 2;"><path d="M76.05450080804496,144.21320975047868L69.45675121206743,171.69481462571804A84.78750000000002,84.78750000000002 0,0,0 109.04324878793261,171.69481462571804L102.44549919195508,144.21320975047868A56.52500000000001,56.52500000000001 0,0,1 76.05450080804496,144.21320975047868Z" style="opacity: 1; stroke-width: 0.5px; fill: rgb(238, 138, 130); fill-opacity: 1; stroke: rgb(229, 236, 246); stroke-opacity: 1;"/></g><g class="point" style="vector-effect: non-scaling-stroke; stroke-miterlimit: 2;"><path d="M59.37280299930648,120.73399639843481L44.434204498959716,136.4759945976522A65.10568402319831,65.10568402319831 0,0,0 70.75898670996668,151.67461469353535L76.92265780664445,130.86640979569023A43.403789348798874,43.403789348798874 0,0,1 59.37280299930648,120.73399639843481Z" style="opacity: 1; stroke-width: 0.5px; fill: rgb(238, 138, 130); fill-opacity: 1; stroke: rgb(229, 236, 246); stroke-opacity: 1;"/></g><g class="point" style="vector-effect: non-scaling-stroke; stroke-miterlimit: 2;"><path d="M52.779205748034414,100.05314142941768L34.54380862205161,105.45471214412652A57.055762818095054,57.055762818095054 0,0,0 47.863211933198045,128.5245954055333L61.65880795546537,115.43306360368885A38.03717521206337,38.03717521206337 0,0,1 52.779205748034414,100.05314142941768Z" style="opacity: 1; stroke-width: 0.5px; fill: rgb(238, 138, 130); fill-opacity: 1; stroke: rgb(229, 236, 246); stroke-opacity: 1;"/></g><g class="point" style="vector-effect: non-scaling-stroke; stroke-miterlimit: 2;"><path d="M52.84629129243799,80.51024278757451L34.64443693865697,76.14036418136178A56.15719071092885,56.15719071092885 0,0,0 34.644436938656995,102.35963581863828L52.846291292438,97.98975721242553A37.43812714061923,37.43812714061923 0,0,1 52.84629129243799,80.51024278757451Z" style="opacity: 1; stroke-width: 0.5px; fill: rgb(238, 138, 130); fill-opacity: 1; stroke: rgb(229, 236, 246); stroke-opacity: 1;"/></g><g class="point" style="vector-effect: non-scaling-stroke; stroke-miterlimit: 2;"><path d="M66.19992998578688,67.37630029621458L54.674894978680314,56.43945044432187A47.66518697520127,47.66518697520127 0,0,0 43.547678061994674,75.7123554908613L58.781785374663116,80.2249036605742A31.77679131680085,31.77679131680085 0,0,1 66.19992998578688,67.37630029621458Z" style="opacity: 1; stroke-width: 0.5px; fill: rgb(238, 138, 130); fill-opacity: 1; stroke: rgb(229, 236, 246); stroke-opacity: 1;"/></g><g class="point" style="vector-effect: non-scaling-stroke; stroke-miterlimit: 2;"><path d="M81.45350423454015,62.92947140133525L77.55525635181021,49.76920710200287A41.17645002730828,41.17645002730828 0,0,0 60.90600221287715,59.38165846092238L70.35400147525144,69.33777230728158A27.45096668487219,27.45096668487219 0,0,1 81.45350423454015,62.92947140133525Z" style="opacity: 1; stroke-width: 0.5px; fill: rgb(238, 138, 130); fill-opacity: 1; stroke: rgb(229, 236, 246); stroke-opacity: 1;"/></g><g class="point" style="vector-effect: non-scaling-stroke; stroke-miterlimit: 2;"><path d="M95.39662629912216,63.647458889434716L98.46993944868325,50.846188334152075A39.49506341181518,39.49506341181518 0,0,0 80.03006055131678,50.84618833415208L83.10337370087785,63.647458889434716A26.330042274543455,26.330042274543455 0,0,1 95.39662629912216,63.647458889434716Z" style="opacity: 1; stroke-width: 0.5px; fill: rgb(238, 138, 130); fill-opacity: 1; stroke: rgb(229, 236, 246); stroke-opacity: 1;"/></g><g class="point" style="vector-effect: non-scaling-stroke; stroke-miterlimit: 2;"><path d="M116.10625989782545,60.94940708029145L129.53438984673818,46.79911062043718A58.5227312626458,58.5227312626458 0,0,0 105.87135369257537,33.137250326987434L100.33090246171692,51.84150021799162A39.0151541750972,39.0151541750972 0,0,1 116.10625989782545,60.94940708029145Z" style="opacity: 1; stroke-width: 0.5px; fill: rgb(238, 138, 130); fill-opacity: 1; stroke: rgb(229, 236, 246); stroke-opacity: 1;"/></g><g class="point" style="vector-effect: non-scaling-stroke; stroke-miterlimit: 2;"><path d="M122.12432968308983,79.51217991003628L138.56149452463472,74.6432698650544A51.42936960033837,51.42936960033837 0,0,0 126.55554662540389,53.8483581105618L114.12036441693593,65.6489054070412A34.28624640022558,34.28624640022558 0,0,1 122.12432968308983,79.51217991003628Z" style="opacity: 1; stroke-width: 0.5px; fill: rgb(238, 138, 130); fill-opacity: 1; stroke: rgb(229, 236, 246); stroke-opacity: 1;"/></g><g class="point" style="vector-effect: non-scaling-stroke; stroke-miterlimit: 2;"><path d="M132.29035378252956,99.58307472647888L153.81053067379435,104.74961208971833A66.39503065601883,66.39503065601883 0,0,0 153.81053067379435,73.7503879102817L132.29035378252956,78.91692527352113A44.263353770679224,44.263353770679224 0,0,1 132.29035378252956,99.58307472647888Z" style="opacity: 1; stroke-width: 0.5px; fill: rgb(238, 138, 130); fill-opacity: 1; stroke: rgb(229, 236, 246); stroke-opacity: 1;"/></g><g class="point" style="vector-effect: non-scaling-stroke; stroke-miterlimit: 2;"><path d="M109.5565675128548,108.52021304130268L119.70985126928218,118.15531956195402A41.99190443794461,41.99190443794461 0,0,0 129.51266667980056,101.17634521371704L116.09177778653371,97.2008968091447A27.994602958629745,27.994602958629745 0,0,1 109.5565675128548,108.52021304130268Z" style="opacity: 1; stroke-width: 0.5px; fill: rgb(238, 138, 130); fill-opacity: 1; stroke: rgb(229, 236, 246); stroke-opacity: 1;"/></g><g class="point" style="vector-effect: non-scaling-stroke; stroke-miterlimit: 2;"><path d="M99.76804782846689,124.75833438501297L105.02707174270033,142.51250157751946A55.55006811039547,55.55006811039547 0,0,0 127.48814356389043,129.54459571526786L114.7420957092603,116.11306381017857A37.03337874026365,37.03337874026365 0,0,1 99.76804782846689,124.75833438501297Z" style="opacity: 1; stroke-width: 0.5px; fill: rgb(238, 138, 130); fill-opacity: 1; stroke: rgb(229, 236, 246); stroke-opacity: 1;"/></g></g></g></g><g class="scatterlayer"/></g><g class="polarsublayer angular-line"><path d="M89.25000000000001,0A89.25000000000001,89.25000000000001 0,1,0 -89.25000000000001,-1.092997268239013e-14A89.25000000000001,89.25000000000001 0,1,0 89.25000000000001,2.185994536478026e-14Z" transform="translate(209.85555555555555,189.25)" stroke-width="1" style="fill: none; stroke: rgb(255, 255, 255); stroke-opacity: 1;"/></g><g class="polarsublayer radial-line"><line display="none" style="fill: none; stroke: rgb(0, 0, 0); stroke-opacity: 1;"/></g><g class="polarsublayer angular-axis"><g class="angularaxistick"><text text-anchor="middle" x="2.2655965784226036e-16" y="19.7" transform="translate(209.85555555555555,278.5)" style="font-family: Verdana; font-size: 16px; fill: rgb(255, 255, 255); fill-opacity: 1; white-space: pre;">Apr 1855</text></g><g class="angularaxistick"><text text-anchor="end" x="-1.8499999999999992" y="19.860700454553438" transform="translate(165.23055555555555,266.5427672877612)" style="font-family: Verdana; font-size: 16px; fill: rgb(255, 255, 255); fill-opacity: 1; white-space: pre;">May 1855</text></g><g class="angularaxistick"><text text-anchor="end" x="-3.2042939940024224" y="14.699742261192862" transform="translate(132.56278826779442,233.87500000000003)" style="font-family: Verdana; font-size: 16px; fill: rgb(255, 255, 255); fill-opacity: 1; white-space: pre;">Jun 1855</text></g><g class="angularaxistick"><text text-anchor="end" x="-3.7" y="5.600000000000002" transform="translate(120.60555555555554,189.25)" style="font-family: Verdana; font-size: 16px; fill: rgb(255, 255, 255); fill-opacity: 1; white-space: pre;">Jul 1855</text></g><g class="angularaxistick"><text text-anchor="end" x="-3.2042939940024238" y="1.3997422611928583" transform="translate(132.56278826779436,144.625)" style="font-family: Verdana; font-size: 16px; fill: rgb(255, 255, 255); fill-opacity: 1; white-space: pre;">Aug 1855</text></g><g class="angularaxistick"><text text-anchor="end" x="-1.8499999999999988" y="-3.1755752861126303" transform="translate(165.23055555555558,111.95723271223882)" style="font-family: Verdana; font-size: 16px; fill: rgb(255, 255, 255); fill-opacity: 1; white-space: pre;">Sep 1855</text></g><g class="angularaxistick"><text text-anchor="middle" x="-6.79678973526781e-16" y="-6.8999999999999995" transform="translate(209.85555555555553,99.99999999999999)" style="font-family: Verdana; font-size: 16px; fill: rgb(255, 255, 255); fill-opacity: 1; white-space: pre;">Oct 1855</text></g><g class="angularaxistick"><text text-anchor="start" x="1.8499999999999976" y="-3.1755752861126334" transform="translate(254.4805555555555,111.9572327122388)" style="font-family: Verdana; font-size: 16px; fill: rgb(255, 255, 255); fill-opacity: 1; white-space: pre;">Nov 1855</text></g><g class="angularaxistick"><text text-anchor="start" x="3.204293994002422" y="1.3997422611928516" transform="translate(287.1483228433167,144.62499999999994)" style="font-family: Verdana; font-size: 16px; fill: rgb(255, 255, 255); fill-opacity: 1; white-space: pre;">Dec 1855</text></g><g class="angularaxistick"><text text-anchor="start" x="3.7" y="5.599999999999998" transform="translate(299.10555555555555,189.24999999999997)" style="font-family: Verdana; font-size: 16px; fill: rgb(255, 255, 255); fill-opacity: 1; white-space: pre;">Jan 1856</text></g><g class="angularaxistick"><text text-anchor="start" x="3.204293994002423" y="14.699742261192856" transform="translate(287.1483228433167,233.875)" style="font-family: Verdana; font-size: 16px; fill: rgb(255, 255, 255); fill-opacity: 1; white-space: pre;">Feb 1856</text></g><g class="angularaxistick"><text text-anchor="start" x="1.850000000000002" y="19.860700454553438" transform="translate(254.4805555555556,266.54276728776114)" style="font-family: Verdana; font-size: 16px; fill: rgb(255, 255, 255); fill-opacity: 1; white-space: pre;">Mar 1856</text></g></g><g class="polarsublayer radial-axis" display="none"/></g><g class="polar2"><g class="polarsublayer draglayer"/><g class="polarsublayer plotbg"><path d="M210,0A210,210 0,1,0 -210,-2.5717582782094416e-14A210,210 0,1,0 210,5.143516556418883e-14Z" transform="translate(689.3222222222223,310)" style="fill: rgb(17, 17, 17); fill-opacity: 1;"/></g><g class="polarsublayer backplot"><g class="maplayer"/></g><g class="polarsublayer angular-grid" style="fill: none;"><path class="angularaxisgrid" d="M689.3222222222223,310L507.4568874274902,205" style="stroke: rgb(255, 255, 255); stroke-opacity: 1; stroke-width: 1px;"/><path class="angularaxisgrid" d="M689.3222222222223,310L584.3222222222223,128.1346652052679" style="stroke: rgb(255, 255, 255); stroke-opacity: 1; stroke-width: 1px;"/><path class="angularaxisgrid" d="M689.3222222222223,310L689.3222222222223,100" style="stroke: rgb(255, 255, 255); stroke-opacity: 1; stroke-width: 1px;"/><path class="angularaxisgrid" d="M689.3222222222223,310L794.3222222222223,128.13466520526788" style="stroke: rgb(255, 255, 255); stroke-opacity: 1; stroke-width: 1px;"/><path class="angularaxisgrid" d="M689.3222222222223,310L871.1875570169544,204.99999999999994" style="stroke: rgb(255, 255, 255); stroke-opacity: 1; stroke-width: 1px;"/><path class="angularaxisgrid" d="M689.3222222222223,310L899.3222222222223,310" style="stroke: rgb(255, 255, 255); stroke-opacity: 1; stroke-width: 1px;"/><path class="angularaxisgrid" d="M689.3222222222223,310L871.1875570169544,415" style="stroke: rgb(255, 255, 255); stroke-opacity: 1; stroke-width: 1px;"/><path class="angularaxisgrid" d="M689.3222222222223,310L794.3222222222224,491.8653347947321" style="stroke: rgb(255, 255, 255); stroke-opacity: 1; stroke-width: 1px;"/><path class="angularaxisgrid" d="M689.3222222222223,310L689.3222222222224,520" style="stroke: rgb(255, 255, 255); stroke-opacity: 1; stroke-width: 1px;"/><path class="angularaxisgrid" d="M689.3222222222223,310L584.3222222222223,491.8653347947321" style="stroke: rgb(255, 255, 255); stroke-opacity: 1; stroke-width: 1px;"/><path class="angularaxisgrid" d="M689.3222222222223,310L507.4568874274902,415" style="stroke: rgb(255, 255, 255); stroke-opacity: 1; stroke-width: 1px;"/><path class="angularaxisgrid" d="M689.3222222222223,310L479.3222222222223,310.0000000000001" style="stroke: rgb(255, 255, 255); stroke-opacity: 1; stroke-width: 1px;"/></g><g class="polarsublayer radial-grid" display="none" style="fill: none;"><path class="xgrid" d="M49.79,0A49.79,49.79 0,1,0 -49.79,-6.097516412954672e-15A49.79,49.79 0,1,0 49.79,1.2195032825909344e-14Z" style="stroke: rgb(221, 221, 221); stroke-opacity: 1; stroke-width: 1px;"/><path class="xgrid" d="M99.58,0A99.58,99.58 0,1,0 -99.58,-1.2195032825909344e-14A99.58,99.58 0,1,0 99.58,2.4390065651818687e-14Z" style="stroke: rgb(221, 221, 221); stroke-opacity: 1; stroke-width: 1px;"/><path class="xgrid" d="M149.37,0A149.37,149.37 0,1,0 -149.37,-1.8292549238864017e-14A149.37,149.37 0,1,0 149.37,3.6585098477728034e-14Z" style="stroke: rgb(221, 221, 221); stroke-opacity: 1; stroke-width: 1px;"/><path class="xgrid" d="M199.16,0A199.16,199.16 0,1,0 -199.16,-2.4390065651818687e-14A199.16,199.16 0,1,0 199.16,4.8780131303637374e-14Z" style="stroke: rgb(221, 221, 221); stroke-opacity: 1; stroke-width: 1px;"/></g><g class="polarsublayer frontplot" transform="translate(479.32222222222225,100)" clip-path="url('#clip6cade0polar2-for-traces')"><g class="barlayer"><g class="trace bars" style="opacity: 1;"><g class="points"><g class="point" style="vector-effect: non-scaling-stroke; stroke-miterlimit: 2;"><path d="M210.00000000000006,210L199.21764057716055,199.767922962141A14.864544232231847,14.864544232231847 0,0,0 195.747581640315,205.77824134601596L210.00000000000006,210A0,0 0,0,1 210.00000000000006,210Z" style="opacity: 1; stroke-width: 0.5px; fill: rgb(251, 230, 197); fill-opacity: 1; stroke: rgb(229, 236, 246); stroke-opacity: 1;"/></g><g class="point" style="vector-effect: non-scaling-stroke; stroke-miterlimit: 2;"><path d="M210.00000000000006,210L206.57765885875418,198.4463699343475A12.049845915239477,12.049845915239477 0,0,0 201.70543342784026,201.25935059843817L210.00000000000006,210A0,0 0,0,1 210.00000000000006,210Z" style="opacity: 1; stroke-width: 0.5px; fill: rgb(251, 230, 197); fill-opacity: 1; stroke: rgb(229, 236, 246); stroke-opacity: 1;"/></g><g class="point" style="vector-effect: non-scaling-stroke; stroke-miterlimit: 2;"><path d="M210.00000000000006,210L212.0737568586972,201.36218103324532A8.883264265540026,8.883264265540026 0,0,0 207.9262431413029,201.36218103324532L210.00000000000006,210A0,0 0,0,1 210.00000000000006,210Z" style="opacity: 1; stroke-width: 0.5px; fill: rgb(251, 230, 197); fill-opacity: 1; stroke: rgb(229, 236, 246); stroke-opacity: 1;"/></g><g class="point" style="vector-effect: non-scaling-stroke; stroke-miterlimit: 2;"><path d="M210.00000000000006,210L221.98258167319398,197.37299358323236A17.407571760698108,17.407571760698108 0,0,0 214.944017494073,193.3092766597084L210.00000000000006,210A0,0 0,0,1 210.00000000000006,210Z" style="opacity: 1; stroke-width: 0.5px; fill: rgb(251, 230, 197); fill-opacity: 1; stroke: rgb(229, 236, 246); stroke-opacity: 1;"/></g><g class="point" style="vector-effect: non-scaling-stroke; stroke-miterlimit: 2;"><path d="M210.00000000000006,210L228.5828800100827,204.49550016575245A19.380994502201403,19.380994502201403 0,0,0 224.058476696627,196.65900375291417L210.00000000000006,210A0,0 0,0,1 210.00000000000006,210Z" style="opacity: 1; stroke-width: 0.5px; fill: rgb(251, 230, 197); fill-opacity: 1; stroke: rgb(229, 236, 246); stroke-opacity: 1;"/></g><g class="point" style="vector-effect: non-scaling-stroke; stroke-miterlimit: 2;"><path d="M210.00000000000006,210L238.7523918108893,216.90283854654356A29.5693965925336,29.5693965925336 0,0,0 238.7523918108893,203.0971614534564L210.00000000000006,210A0,0 0,0,1 210.00000000000006,210Z" style="opacity: 1; stroke-width: 0.5px; fill: rgb(251, 230, 197); fill-opacity: 1; stroke: rgb(229, 236, 246); stroke-opacity: 1;"/></g><g class="point" style="vector-effect: non-scaling-stroke; stroke-miterlimit: 2;"><path d="M210.00000000000006,210L238.84587037449987,237.3737088814508A39.7668728414602,39.7668728414602 0,0,0 248.12926247438608,221.29440209786438L210.00000000000006,210A0,0 0,0,1 210.00000000000006,210Z" style="opacity: 1; stroke-width: 0.5px; fill: rgb(251, 230, 197); fill-opacity: 1; stroke: rgb(229, 236, 246); stroke-opacity: 1;"/></g><g class="point" style="vector-effect: non-scaling-stroke; stroke-miterlimit: 2;"><path d="M210.00000000000006,210L220.43917713280493,245.24207137875754A36.75568002738511,36.75568002738511 0,0,0 235.30094052958614,236.66162828099337L210.00000000000006,210A0,0 0,0,1 210.00000000000006,210Z" style="opacity: 1; stroke-width: 0.5px; fill: rgb(251, 230, 197); fill-opacity: 1; stroke: rgb(229, 236, 246); stroke-opacity: 1;"/></g><g class="point" style="vector-effect: non-scaling-stroke; stroke-miterlimit: 2;"><path d="M210.00000000000006,210L200.91325271768423,247.84902636590004A38.924513780126674,38.924513780126674 0,0,0 219.08674728231594,247.84902636590004L210.00000000000006,210A0,0 0,0,1 210.00000000000006,210Z" style="opacity: 1; stroke-width: 0.5px; fill: rgb(251, 230, 197); fill-opacity: 1; stroke: rgb(229, 236, 246); stroke-opacity: 1;"/></g><g class="point" style="vector-effect: non-scaling-stroke; stroke-miterlimit: 2;"><path d="M210.00000000000006,210L167.6351762138147,254.64320931691228A61.545060179905406,61.545060179905406 0,0,0 192.52025851818055,269.0106182841439L210.00000000000006,210A0,0 0,0,1 210.00000000000006,210Z" style="opacity: 1; stroke-width: 0.5px; fill: rgb(251, 230, 197); fill-opacity: 1; stroke: rgb(229, 236, 246); stroke-opacity: 1;"/></g><g class="point" style="vector-effect: non-scaling-stroke; stroke-miterlimit: 2;"><path d="M210.00000000000006,210L146.23848763126523,228.88702042281088A66.49999999999999,66.49999999999999 0,0,0 161.7626043276829,255.7755792836346L210.00000000000006,210A0,0 0,0,1 210.00000000000006,210Z" style="opacity: 1; stroke-width: 0.5px; fill: rgb(251, 230, 197); fill-opacity: 1; stroke: rgb(229, 236, 246); stroke-opacity: 1;"/></g><g class="point" style="vector-effect: non-scaling-stroke; stroke-miterlimit: 2;"><path d="M210.00000000000006,210L164.75233720039688,199.1369972637957A46.53338390095196,46.53338390095196 0,0,0 164.75233720039688,220.86300273620427L210.00000000000006,210A0,0 0,0,1 210.00000000000006,210Z" style="opacity: 1; stroke-width: 0.5px; fill: rgb(251, 230, 197); fill-opacity: 1; stroke: rgb(229, 236, 246); stroke-opacity: 1;"/></g></g></g><g class="trace bars" style="opacity: 1;"><g class="points"><g class="point" style="vector-effect: non-scaling-stroke; stroke-miterlimit: 2;"><path d="M199.21764057716055,199.767922962141L188.43528115432105,189.53584592428203A29.729088464463693,29.729088464463693 0,0,0 181.49516328062992,201.55648269203192L195.747581640315,205.77824134601596A14.864544232231847,14.864544232231847 0,0,1 199.21764057716055,199.767922962141Z" style="opacity: 1; stroke-width: 0.5px; fill: rgb(245, 186, 152); fill-opacity: 1; stroke: rgb(229, 236, 246); stroke-opacity: 1;"/></g><g class="point" style="vector-effect: non-scaling-stroke; stroke-miterlimit: 2;"><path d="M206.57765885875418,198.4463699343475L203.15531771750827,186.892739868695A24.099691830478953,24.099691830478953 0,0,0 193.4108668556805,192.51870119687635L201.70543342784026,201.25935059843817A12.049845915239477,12.049845915239477 0,0,1 206.57765885875418,198.4463699343475Z" style="opacity: 1; stroke-width: 0.5px; fill: rgb(245, 186, 152); fill-opacity: 1; stroke: rgb(229, 236, 246); stroke-opacity: 1;"/></g><g class="point" style="vector-effect: non-scaling-stroke; stroke-miterlimit: 2;"><path d="M212.0737568586972,201.36218103324532L214.14751371739436,192.72436206649064A17.766528531080052,17.766528531080052 0,0,0 205.85248628260575,192.72436206649064L207.9262431413029,201.36218103324532A8.883264265540026,8.883264265540026 0,0,1 212.0737568586972,201.36218103324532Z" style="opacity: 1; stroke-width: 0.5px; fill: rgb(245, 186, 152); fill-opacity: 1; stroke: rgb(229, 236, 246); stroke-opacity: 1;"/></g><g class="point" style="vector-effect: non-scaling-stroke; stroke-miterlimit: 2;"><path d="M221.98258167319398,197.37299358323236L233.9651633463879,184.7459871664647A34.815143521396216,34.815143521396216 0,0,0 219.88803498814593,176.61855331941678L214.944017494073,193.3092766597084A17.407571760698108,17.407571760698108 0,0,1 221.98258167319398,197.37299358323236Z" style="opacity: 1; stroke-width: 0.5px; fill: rgb(245, 186, 152); fill-opacity: 1; stroke: rgb(229, 236, 246); stroke-opacity: 1;"/></g><g class="point" style="vector-effect: non-scaling-stroke; stroke-miterlimit: 2;"><path d="M228.5828800100827,204.49550016575245L247.16576002016538,198.9910003315049A38.76198900440281,38.76198900440281 0,0,0 238.11695339325394,183.31800750582835L224.058476696627,196.65900375291417A19.380994502201403,19.380994502201403 0,0,1 228.5828800100827,204.49550016575245Z" style="opacity: 1; stroke-width: 0.5px; fill: rgb(245, 186, 152); fill-opacity: 1; stroke: rgb(229, 236, 246); stroke-opacity: 1;"/></g><g class="point" style="vector-effect: non-scaling-stroke; stroke-miterlimit: 2;"><path d="M238.7523918108893,216.90283854654356L267.50478362177853,223.80567709308716A59.1387931850672,59.1387931850672 0,0,0 267.50478362177853,196.19432290691282L238.7523918108893,203.0971614534564A29.5693965925336,29.5693965925336 0,0,1 238.7523918108893,216.90283854654356Z" style="opacity: 1; stroke-width: 0.5px; fill: rgb(245, 186, 152); fill-opacity: 1; stroke: rgb(229, 236, 246); stroke-opacity: 1;"/></g><g class="point" style="vector-effect: non-scaling-stroke; stroke-miterlimit: 2;"><path d="M238.84587037449987,237.3737088814508L267.6917407489997,264.7474177629016A79.5337456829204,79.5337456829204 0,0,0 286.2585249487721,232.58880419572876L248.12926247438608,221.29440209786438A39.7668728414602,39.7668728414602 0,0,1 238.84587037449987,237.3737088814508Z" style="opacity: 1; stroke-width: 0.5px; fill: rgb(245, 186, 152); fill-opacity: 1; stroke: rgb(229, 236, 246); stroke-opacity: 1;"/></g><g class="point" style="vector-effect: non-scaling-stroke; stroke-miterlimit: 2;"><path d="M220.43917713280493,245.24207137875754L230.87835426560977,280.4841427575151A73.51136005477022,73.51136005477022 0,0,0 260.60188105917223,263.32325656198674L235.30094052958614,236.66162828099337A36.75568002738511,36.75568002738511 0,0,1 220.43917713280493,245.24207137875754Z" style="opacity: 1; stroke-width: 0.5px; fill: rgb(245, 186, 152); fill-opacity: 1; stroke: rgb(229, 236, 246); stroke-opacity: 1;"/></g><g class="point" style="vector-effect: non-scaling-stroke; stroke-miterlimit: 2;"><path d="M200.91325271768423,247.84902636590004L191.82650543536838,285.6980527318001A77.84902756025335,77.84902756025335 0,0,0 228.17349456463185,285.6980527318001L219.08674728231594,247.84902636590004A38.924513780126674,38.924513780126674 0,0,1 200.91325271768423,247.84902636590004Z" style="opacity: 1; stroke-width: 0.5px; fill: rgb(245, 186, 152); fill-opacity: 1; stroke: rgb(229, 236, 246); stroke-opacity: 1;"/></g><g class="point" style="vector-effect: non-scaling-stroke; stroke-miterlimit: 2;"><path d="M167.6351762138147,254.64320931691228L125.27035242762936,299.28641863382455A123.09012035981081,123.09012035981081 0,0,0 175.04051703636105,328.02123656828775L192.52025851818055,269.0106182841439A61.545060179905406,61.545060179905406 0,0,1 167.6351762138147,254.64320931691228Z" style="opacity: 1; stroke-width: 0.5px; fill: rgb(245, 186, 152); fill-opacity: 1; stroke: rgb(229, 236, 246); stroke-opacity: 1;"/></g><g class="point" style="vector-effect: non-scaling-stroke; stroke-miterlimit: 2;"><path d="M146.23848763126523,228.88702042281088L82.47697526253042,247.77404084562176A132.99999999999997,132.99999999999997 0,0,0 113.52520865536577,301.5511585672692L161.7626043276829,255.7755792836346A66.49999999999999,66.49999999999999 0,0,1 146.23848763126523,228.88702042281088Z" style="opacity: 1; stroke-width: 0.5px; fill: rgb(245, 186, 152); fill-opacity: 1; stroke: rgb(229, 236, 246); stroke-opacity: 1;"/></g><g class="point" style="vector-effect: non-scaling-stroke; stroke-miterlimit: 2;"><path d="M164.75233720039688,199.1369972637957L119.5046744007937,188.2739945275914A93.06676780190392,93.06676780190392 0,0,0 119.50467440079369,231.72600547240853L164.75233720039688,220.86300273620427A46.53338390095196,46.53338390095196 0,0,1 164.75233720039688,199.1369972637957Z" style="opacity: 1; stroke-width: 0.5px; fill: rgb(245, 186, 152); fill-opacity: 1; stroke: rgb(229, 236, 246); stroke-opacity: 1;"/></g></g></g><g class="trace bars" style="opacity: 1;"><g class="points"><g class="point" style="vector-effect: non-scaling-stroke; stroke-miterlimit: 2;"><path d="M188.43528115432105,189.53584592428203L177.65292173148154,179.30376888642303A44.59363269669554,44.59363269669554 0,0,0 167.24274492094486,197.3347240380479L181.49516328062992,201.55648269203192A29.729088464463693,29.729088464463693 0,0,1 188.43528115432105,189.53584592428203Z" style="opacity: 1; stroke-width: 0.5px; fill: rgb(238, 138, 130); fill-opacity: 1; stroke: rgb(229, 236, 246); stroke-opacity: 1;"/></g><g class="point" style="vector-effect: non-scaling-stroke; stroke-miterlimit: 2;"><path d="M203.15531771750827,186.892739868695L199.7329765762624,175.3391098030425A36.14953774571843,36.14953774571843 0,0,0 185.1163002835207,183.77805179531455L193.4108668556805,192.51870119687635A24.099691830478953,24.099691830478953 0,0,1 203.15531771750827,186.892739868695Z" style="opacity: 1; stroke-width: 0.5px; fill: rgb(238, 138, 130); fill-opacity: 1; stroke: rgb(229, 236, 246); stroke-opacity: 1;"/></g><g class="point" style="vector-effect: non-scaling-stroke; stroke-miterlimit: 2;"><path d="M214.14751371739436,192.72436206649064L216.2212705760915,184.08654309973596A26.64979279662008,26.64979279662008 0,0,0 203.7787294239086,184.08654309973596L205.85248628260575,192.72436206649064A17.766528531080052,17.766528531080052 0,0,1 214.14751371739436,192.72436206649064Z" style="opacity: 1; stroke-width: 0.5px; fill: rgb(238, 138, 130); fill-opacity: 1; stroke: rgb(229, 236, 246); stroke-opacity: 1;"/></g><g class="point" style="vector-effect: non-scaling-stroke; stroke-miterlimit: 2;"><path d="M233.9651633463879,184.7459871664647L245.94774501958182,172.11898074969704A52.22271528209433,52.22271528209433 0,0,0 224.83205248221887,159.9278299791252L219.88803498814593,176.61855331941678A34.815143521396216,34.815143521396216 0,0,1 233.9651633463879,184.7459871664647Z" style="opacity: 1; stroke-width: 0.5px; fill: rgb(238, 138, 130); fill-opacity: 1; stroke: rgb(229, 236, 246); stroke-opacity: 1;"/></g><g class="point" style="vector-effect: non-scaling-stroke; stroke-miterlimit: 2;"><path d="M247.16576002016538,198.9910003315049L265.74864003024805,193.48650049725734A58.14298350660422,58.14298350660422 0,0,0 252.17543008988088,169.9770112587425L238.11695339325394,183.31800750582835A38.76198900440281,38.76198900440281 0,0,1 247.16576002016538,198.9910003315049Z" style="opacity: 1; stroke-width: 0.5px; fill: rgb(238, 138, 130); fill-opacity: 1; stroke: rgb(229, 236, 246); stroke-opacity: 1;"/></g><g class="point" style="vector-effect: non-scaling-stroke; stroke-miterlimit: 2;"><path d="M267.50478362177853,223.80567709308716L296.25717543266774,230.70851563963072A88.7081897776008,88.7081897776008 0,0,0 296.25717543266774,189.29148436036922L267.50478362177853,196.19432290691282A59.1387931850672,59.1387931850672 0,0,1 267.50478362177853,223.80567709308716Z" style="opacity: 1; stroke-width: 0.5px; fill: rgb(238, 138, 130); fill-opacity: 1; stroke: rgb(229, 236, 246); stroke-opacity: 1;"/></g><g class="point" style="vector-effect: non-scaling-stroke; stroke-miterlimit: 2;"><path d="M267.6917407489997,264.7474177629016L296.5376111234995,292.1211266443524A119.3006185243806,119.3006185243806 0,0,0 324.3877874231581,243.8832062935931L286.2585249487721,232.58880419572876A79.5337456829204,79.5337456829204 0,0,1 267.6917407489997,264.7474177629016Z" style="opacity: 1; stroke-width: 0.5px; fill: rgb(238, 138, 130); fill-opacity: 1; stroke: rgb(229, 236, 246); stroke-opacity: 1;"/></g><g class="point" style="vector-effect: non-scaling-stroke; stroke-miterlimit: 2;"><path d="M230.87835426560977,280.4841427575151L241.31753139841464,315.7262141362726A110.26704008215535,110.26704008215535 0,0,0 285.9028215887583,289.98488484298014L260.60188105917223,263.32325656198674A73.51136005477022,73.51136005477022 0,0,1 230.87835426560977,280.4841427575151Z" style="opacity: 1; stroke-width: 0.5px; fill: rgb(238, 138, 130); fill-opacity: 1; stroke: rgb(229, 236, 246); stroke-opacity: 1;"/></g><g class="point" style="vector-effect: non-scaling-stroke; stroke-miterlimit: 2;"><path d="M191.82650543536838,285.6980527318001L182.73975815305255,323.54707909770013A116.77354134038004,116.77354134038004 0,0,0 237.26024184694774,323.54707909770013L228.17349456463185,285.6980527318001A77.84902756025335,77.84902756025335 0,0,1 191.82650543536838,285.6980527318001Z" style="opacity: 1; stroke-width: 0.5px; fill: rgb(238, 138, 130); fill-opacity: 1; stroke: rgb(229, 236, 246); stroke-opacity: 1;"/></g><g class="point" style="vector-effect: non-scaling-stroke; stroke-miterlimit: 2;"><path d="M125.27035242762936,299.28641863382455L82.905528641444,343.9296279507368A184.63518053971623,184.63518053971623 0,0,0 157.56077555454152,387.03185485243165L175.04051703636105,328.02123656828775A123.09012035981081,123.09012035981081 0,0,1 125.27035242762936,299.28641863382455Z" style="opacity: 1; stroke-width: 0.5px; fill: rgb(238, 138, 130); fill-opacity: 1; stroke: rgb(229, 236, 246); stroke-opacity: 1;"/></g><g class="point" style="vector-effect: non-scaling-stroke; stroke-miterlimit: 2;"><path d="M82.47697526253042,247.77404084562176L18.715462893795575,266.66106126843266A199.5,199.5 0,0,0 65.28781298304861,347.32673785090384L113.52520865536577,301.5511585672692A132.99999999999997,132.99999999999997 0,0,1 82.47697526253042,247.77404084562176Z" style="opacity: 1; stroke-width: 0.5px; fill: rgb(238, 138, 130); fill-opacity: 1; stroke: rgb(229, 236, 246); stroke-opacity: 1;"/></g><g class="point" style="vector-effect: non-scaling-stroke; stroke-miterlimit: 2;"><path d="M119.5046744007937,188.2739945275914L74.25701160119053,177.41099179138712A139.6001517028559,139.6001517028559 0,0,0 74.2570116011905,242.5890082086128L119.50467440079369,231.72600547240853A93.06676780190392,93.06676780190392 0,0,1 119.5046744007937,188.2739945275914Z" style="opacity: 1; stroke-width: 0.5px; fill: rgb(238, 138, 130); fill-opacity: 1; stroke: rgb(229, 236, 246); stroke-opacity: 1;"/></g></g></g></g><g class="scatterlayer"/></g><g class="polarsublayer angular-line"><path d="M210,0A210,210 0,1,0 -210,-2.5717582782094416e-14A210,210 0,1,0 210,5.143516556418883e-14Z" transform="translate(689.3222222222223,310)" stroke-width="1" style="fill: none; stroke: rgb(255, 255, 255); stroke-opacity: 1;"/></g><g class="polarsublayer radial-line"><line display="none" style="fill: none; stroke: rgb(0, 0, 0); stroke-opacity: 1;"/></g><g class="polarsublayer angular-axis"><g class="angularaxistick"><text text-anchor="end" x="-3.2042939940024233" y="1.399742261192857" transform="translate(507.4568874274902,205)" style="font-family: Verdana; font-size: 16px; fill: rgb(255, 255, 255); fill-opacity: 1; white-space: pre;">Apr 1854</text></g><g class="angularaxistick"><text text-anchor="end" x="-1.850000000000001" y="-3.175575286112626" transform="translate(584.3222222222223,128.1346652052679)" style="font-family: Verdana; font-size: 16px; fill: rgb(255, 255, 255); fill-opacity: 1; white-space: pre;">May 1854</text></g><g class="angularaxistick"><text text-anchor="middle" x="-5.950053803803556e-16" y="-6.8999999999999995" transform="translate(689.3222222222223,100)" style="font-family: Verdana; font-size: 16px; fill: rgb(255, 255, 255); fill-opacity: 1; white-space: pre;">Jun 1854</text></g><g class="angularaxistick"><text text-anchor="start" x="1.8499999999999996" y="-3.1755752861126276" transform="translate(794.3222222222223,128.13466520526788)" style="font-family: Verdana; font-size: 16px; fill: rgb(255, 255, 255); fill-opacity: 1; white-space: pre;">Jul 1854</text></g><g class="angularaxistick"><text text-anchor="start" x="3.2042939940024224" y="1.3997422611928534" transform="translate(871.1875570169544,204.99999999999994)" style="font-family: Verdana; font-size: 16px; fill: rgb(255, 255, 255); fill-opacity: 1; white-space: pre;">Aug 1854</text></g><g class="angularaxistick"><text text-anchor="start" x="3.7" y="5.6" transform="translate(899.3222222222223,310)" style="font-family: Verdana; font-size: 16px; fill: rgb(255, 255, 255); fill-opacity: 1; white-space: pre;">Sep 1854</text></g><g class="angularaxistick"><text text-anchor="start" x="3.2042939940024233" y="14.699742261192853" transform="translate(871.1875570169544,415)" style="font-family: Verdana; font-size: 16px; fill: rgb(255, 255, 255); fill-opacity: 1; white-space: pre;">Oct 1854</text></g><g class="angularaxistick"><text text-anchor="start" x="1.8500000000000014" y="19.860700454553438" transform="translate(794.3222222222224,491.8653347947321)" style="font-family: Verdana; font-size: 16px; fill: rgb(255, 255, 255); fill-opacity: 1; white-space: pre;">Nov 1854</text></g><g class="angularaxistick"><text text-anchor="middle" x="1.869689734287492e-15" y="19.700000000000003" transform="translate(689.3222222222224,520)" style="font-family: Verdana; font-size: 16px; fill: rgb(255, 255, 255); fill-opacity: 1; white-space: pre;">Dec 1854</text></g><g class="angularaxistick"><text text-anchor="end" x="-1.8499999999999992" y="19.860700454553438" transform="translate(584.3222222222223,491.8653347947321)" style="font-family: Verdana; font-size: 16px; fill: rgb(255, 255, 255); fill-opacity: 1; white-space: pre;">Jan 1855</text></g><g class="angularaxistick"><text text-anchor="end" x="-3.2042939940024233" y="14.699742261192855" transform="translate(507.4568874274902,415)" style="font-family: Verdana; font-size: 16px; fill: rgb(255, 255, 255); fill-opacity: 1; white-space: pre;">Feb 1855</text></g><g class="angularaxistick"><text text-anchor="end" x="-3.7" y="5.600000000000011" transform="translate(479.3222222222223,310.0000000000001)" style="font-family: Verdana; font-size: 16px; fill: rgb(255, 255, 255); fill-opacity: 1; white-space: pre;">Mar 1855</text></g></g><g class="polarsublayer radial-axis" display="none"/></g></g><g class="ternarylayer"/><g class="geolayer"/><g class="funnelarealayer"/><g class="pielayer"/><g class="treemaplayer"/><g class="sunburstlayer"/><g class="glimages"/><defs id="topdefs-6cade0"><g class="clips"/><clipPath id="legend6cade0"><rect width="191" height="102" x="0" y="0"/></clipPath></defs><g class="layer-above"><g class="imagelayer"/><g class="shapelayer"/></g><g class="infolayer"><g class="legend" pointer-events="all" transform="translate(996.98, 100)"><rect class="bg" shape-rendering="crispEdges" style="stroke: rgb(68, 68, 68); stroke-opacity: 1; fill: rgb(17, 17, 17); fill-opacity: 1; stroke-width: 0px;" width="191" height="102" x="0" y="0"/><g class="scrollbox" transform="translate(0, 0)" clip-path="url('#legend6cade0')"><g class="groups" transform="translate(0, 0)"><g class="traces" transform="translate(0, 16.9)" style="opacity: 1;"><text class="legendtext user-select-none" text-anchor="start" x="40" y="6.24" style="font-family: Verdana; font-size: 16px; fill: rgb(255, 255, 255); fill-opacity: 1; white-space: pre;">All other causes</text><g class="layers" style="opacity: 1;"><g class="legendfill"/><g class="legendlines"/><g class="legendsymbols"><g class="legendpoints"><path class="legendundefined" d="M6,6H-6V-6H6Z" transform="translate(20,0)" style="stroke-width: 0.5px; fill: rgb(251, 230, 197); fill-opacity: 1; stroke: rgb(229, 236, 246); stroke-opacity: 1;"/></g></g></g><rect class="legendtoggle" pointer-events="all" x="0" y="-11.9" width="185.40625" height="23.8" style="cursor: pointer; fill: rgb(0, 0, 0); fill-opacity: 0;"/></g></g><g class="groups" transform="translate(0, 10)"><g class="traces" transform="translate(0, 40.7)" style="opacity: 1;"><text class="legendtext user-select-none" text-anchor="start" x="40" y="6.24" style="font-family: Verdana; font-size: 16px; fill: rgb(255, 255, 255); fill-opacity: 1; white-space: pre;">Wounds &amp; injuries</text><g class="layers" style="opacity: 1;"><g class="legendfill"/><g class="legendlines"/><g class="legendsymbols"><g class="legendpoints"><path class="legendundefined" d="M6,6H-6V-6H6Z" transform="translate(20,0)" style="stroke-width: 0.5px; fill: rgb(245, 186, 152); fill-opacity: 1; stroke: rgb(229, 236, 246); stroke-opacity: 1;"/></g></g></g><rect class="legendtoggle" pointer-events="all" x="0" y="-11.9" width="185.40625" height="23.8" style="cursor: pointer; fill: rgb(0, 0, 0); fill-opacity: 0;"/></g></g><g class="groups" transform="translate(0, 20)"><g class="traces" transform="translate(0, 64.5)" style="opacity: 1;"><text class="legendtext user-select-none" text-anchor="start" x="40" y="6.24" style="font-family: Verdana; font-size: 16px; fill: rgb(255, 255, 255); fill-opacity: 1; white-space: pre;">Zymotic diseases</text><g class="layers" style="opacity: 1;"><g class="legendfill"/><g class="legendlines"/><g class="legendsymbols"><g class="legendpoints"><path class="legendundefined" d="M6,6H-6V-6H6Z" transform="translate(20,0)" style="stroke-width: 0.5px; fill: rgb(238, 138, 130); fill-opacity: 1; stroke: rgb(229, 236, 246); stroke-opacity: 1;"/></g></g></g><rect class="legendtoggle" pointer-events="all" x="0" y="-11.9" width="185.40625" height="23.8" style="cursor: pointer; fill: rgb(0, 0, 0); fill-opacity: 0;"/></g></g></g><rect class="scrollbar" rx="20" ry="3" width="0" height="0" style="fill: rgb(128, 139, 164); fill-opacity: 1;" x="0" y="0"/></g><g class="g-gtitle"><text class="gtitle" x="540" y="50" text-anchor="middle" dy="0em" style="font-family: Verdana; font-size: 22px; fill: rgb(255, 255, 255); opacity: 1; font-weight: normal; white-space: pre;">Causes of Mortality in the army in the East</text></g><g class="g-polartitle"/><g class="g-polar2title"/><g class="annotation" data-index="0" style="opacity: 1;"><g class="annotation-text-g" transform="rotate(0,294.37,310)"><g class="cursor-pointer" transform="translate(197, 298)"><rect class="bg" x="0.5" y="0.5" width="194" height="23" style="stroke-width: 1px; stroke: rgb(0, 0, 0); stroke-opacity: 0; fill: rgb(0, 0, 0); fill-opacity: 0;"/><text class="annotation-text" text-anchor="middle" x="97.171875" y="18" style="font-family: Verdana; font-size: 16px; fill: rgb(255, 255, 255); fill-opacity: 1; white-space: pre;">\__________________</text></g></g></g></g></svg>